<svg width="245" height="245" viewBox="0 0 245 245" fill="none" xmlns="http://www.w3.org/2000/svg">
<rect width="243.126" height="243.126" transform="translate(0 1.62646)" fill="#FFEEDD"/>
<g clip-path="url(#clip0_806_328)">
<path d="M78.9781 71V118.152H74.1357C73.8666 115.054 73.7321 112.831 73.7321 111.484V107.846C73.1518 110.753 71.8443 113.465 69.9322 115.727C68.1163 117.793 65.6166 118.826 62.4331 118.826C59.8154 118.85 57.2545 118.062 55.1022 116.569C52.8421 114.994 51.0427 112.843 49.8899 110.339C48.5782 107.537 47.9226 104.473 47.9731 101.38C47.9274 98.2828 48.5587 95.2135 49.8227 92.387C50.937 89.8599 52.7152 87.6832 54.9677 86.0888C57.1581 84.5669 59.7675 83.7663 62.4331 83.7985C65.7511 83.7985 68.2956 84.6405 70.0667 86.3245C71.8378 88.0085 73.0596 90.3774 73.7321 93.4311V71H78.9781ZM71.1764 110.238C72.8802 107.929 73.7321 104.977 73.7321 101.38C73.7321 97.567 72.8802 94.5358 71.1764 92.2859C69.4726 90.0361 66.9841 88.9134 63.711 88.9179C60.4379 88.9179 57.8709 90.0743 56.0102 92.387C54.1495 94.6997 53.2191 97.6972 53.2191 101.38C53.1798 103.576 53.6398 105.753 54.5642 107.745C55.3811 109.522 56.673 111.037 58.2969 112.124C59.8925 113.177 61.7664 113.728 63.6774 113.707C66.9953 113.707 69.504 112.55 71.2033 110.238H71.1764Z" fill="black"/>
<path d="M116.641 84.4722L98.0115 131.625H92.4965L98.5496 117.681L85.7037 84.4722H91.2859L101.173 111.147L111.059 84.4722H116.641Z" fill="black"/>
<path d="M147.303 86.9647C149.343 89.0798 150.364 91.9539 150.364 95.5869V118.153H145.118V96.9341C145.118 91.7293 142.719 89.1248 137.921 89.1203C135.492 89.1084 133.145 89.9961 131.33 91.6126C129.376 93.3147 128.03 95.6088 127.497 98.1466V118.153H122.251V84.4724H127.497V94.1049C128.107 91.2258 129.586 88.604 131.734 86.5942C133.687 84.7751 136.263 83.7747 138.93 83.7988C142.454 83.7988 145.245 84.8541 147.303 86.9647Z" fill="black"/>
<path d="M187.489 107.375C186.971 110.581 185.325 113.496 182.848 115.593C180.235 117.785 176.907 118.936 173.5 118.826C170.565 118.86 167.678 118.079 165.16 116.57C162.655 115.075 160.607 112.919 159.241 110.339C157.777 107.583 157.037 104.5 157.089 101.38C157.041 98.2568 157.757 95.1696 159.174 92.3871C160.485 89.804 162.472 87.6268 164.924 86.0889C167.397 84.5552 170.255 83.7606 173.163 83.7987C177.737 83.7987 181.301 85.2582 183.857 88.1771C186.413 91.0961 187.691 95.2724 187.691 100.706C187.691 101.609 187.691 102.282 187.623 102.727H162.335C162.537 105.715 163.816 108.528 165.933 110.642C166.923 111.637 168.104 112.422 169.404 112.948C170.704 113.475 172.097 113.733 173.5 113.707C175.544 113.756 177.549 113.141 179.216 111.955C180.794 110.839 181.953 109.227 182.512 107.375H187.489ZM166.411 91.3094C164.541 92.9953 163.238 95.2185 162.678 97.6749H182.317C182.088 94.8907 181.102 92.7352 179.358 91.2083C177.543 89.6592 175.217 88.8427 172.834 88.9181C170.469 88.8789 168.176 89.7326 166.411 91.3094Z" fill="black"/>
<path d="M196.003 118.153H189.143V111.619H196.003V118.153Z" fill="black"/>
<path d="M114.308 155.484C111.791 154.041 109.72 151.932 108.322 149.387C106.774 146.563 105.997 143.38 106.069 140.159C106.004 136.95 106.781 133.779 108.322 130.964C109.72 128.394 111.789 126.252 114.308 124.767C116.749 123.316 119.539 122.559 122.378 122.578C125.195 122.564 127.963 123.321 130.382 124.767C132.879 126.258 134.925 128.4 136.3 130.964C137.818 133.787 138.583 136.954 138.52 140.159C138.589 143.376 137.824 146.555 136.3 149.387C134.925 151.926 132.877 154.036 130.382 155.484C127.949 156.888 125.187 157.621 122.378 157.605C119.548 157.625 116.763 156.893 114.308 155.484ZM127.624 151.004C129.342 149.973 130.748 148.495 131.693 146.727C132.761 144.706 133.294 142.445 133.24 140.159C133.292 137.863 132.76 135.591 131.693 133.558C130.752 131.769 129.346 130.268 127.624 129.213C126.038 128.228 124.211 127.704 122.345 127.697C120.45 127.69 118.589 128.203 116.964 129.179C115.224 130.222 113.804 131.726 112.862 133.524C111.775 135.563 111.231 137.848 111.281 140.159C111.225 142.449 111.77 144.714 112.862 146.727C113.823 148.494 115.24 149.971 116.964 151.004C118.59 151.978 120.45 152.49 122.345 152.486C124.206 152.477 126.03 151.965 127.624 151.004Z" fill="black"/>
<path d="M153.955 125.576C155.654 123.573 158.053 122.574 161.151 122.578V127.967C158.013 127.967 155.603 128.977 153.921 130.998C152.314 132.878 151.132 135.084 150.458 137.465V153.227H145.212V123.252H150.458V132.413C151.063 129.887 152.262 127.543 153.955 125.576Z" fill="black"/>
<path d="M196.003 129.044C193.219 129.044 190.17 128.169 186.857 126.417C190.305 128.883 192.031 132.475 192.035 137.195C192.096 139.862 191.458 142.497 190.186 144.841C189.023 146.942 187.3 148.68 185.209 149.859C183.145 151.02 180.816 151.623 178.45 151.61C176.484 151.635 174.53 151.907 172.632 152.419C171.441 152.823 170.85 153.564 170.85 154.641C170.835 154.964 170.898 155.285 171.032 155.578C171.167 155.87 171.369 156.127 171.623 156.325C172.308 156.78 173.124 156.993 173.943 156.932H180.736C184.543 156.932 187.614 157.763 189.95 159.424C192.286 161.086 193.452 163.803 193.448 167.575V168.922C193.448 169.32 193.29 169.702 193.008 169.984C192.727 170.266 192.346 170.424 191.948 170.424H188.202V168.942C188.202 166.607 187.585 164.878 186.352 163.755C185.119 162.633 183.27 162.071 180.803 162.071H174.28C171.361 162.071 169.188 161.573 167.756 160.589C167.062 160.128 166.5 159.495 166.122 158.751C165.745 158.007 165.567 157.179 165.604 156.346C165.54 155.467 165.724 154.587 166.134 153.807C166.544 153.027 167.164 152.378 167.924 151.934C169.61 150.977 171.541 150.544 173.473 150.687C170.894 149.717 168.676 147.977 167.117 145.703C165.429 143.202 164.57 140.232 164.662 137.215C164.61 134.546 165.259 131.909 166.545 129.57C167.723 127.421 169.468 125.639 171.589 124.417C173.674 123.21 176.042 122.582 178.45 122.598C179.867 122.587 181.277 122.815 182.619 123.272L196.003 123.204V129.044ZM184.334 144.032C185.971 142.348 186.789 140.069 186.789 137.195C186.832 135.449 186.426 133.721 185.612 132.177C184.899 130.83 183.844 129.696 182.552 128.89C181.319 128.13 179.897 127.734 178.45 127.744C176.986 127.74 175.547 128.123 174.28 128.856C172.943 129.629 171.848 130.761 171.119 132.123C170.282 133.672 169.865 135.414 169.908 137.175C169.908 140.044 170.749 142.323 172.43 144.012C173.208 144.823 174.143 145.465 175.179 145.9C176.214 146.334 177.327 146.551 178.45 146.538C179.548 146.551 180.637 146.334 181.648 145.903C182.659 145.471 183.569 144.834 184.321 144.032H184.334Z" fill="black"/>
<path d="M188.181 169.42C188.203 170.327 188.035 171.229 187.688 172.066C187.34 172.904 186.821 173.66 186.164 174.284C184.801 175.644 182.957 176.411 181.032 176.417C179.108 176.423 177.259 175.669 175.887 174.318L163.108 160.374L163.075 160.334L163.035 160.293C161.859 159.11 160.457 158.177 158.912 157.552C157.416 156.945 155.817 156.636 154.204 156.642C152.59 156.636 150.991 156.945 149.496 157.552C147.952 158.176 146.552 159.109 145.38 160.293C144.199 161.47 143.267 162.875 142.643 164.422C142.034 165.92 141.724 167.521 141.728 169.138C141.723 170.754 142.034 172.356 142.643 173.853C143.267 175.4 144.199 176.805 145.38 177.982C146.552 179.166 147.952 180.099 149.496 180.724C150.991 181.332 152.59 181.643 154.204 181.64C155.818 181.643 157.417 181.332 158.912 180.724C160.457 180.098 161.859 179.165 163.035 177.982L163.075 177.942L165.994 174.755L162.47 170.943L159.349 174.365C157.976 175.717 156.126 176.471 154.2 176.465C152.275 176.459 150.43 175.692 149.065 174.331C147.699 172.96 146.932 171.102 146.932 169.164C146.932 167.227 147.699 165.369 149.065 163.998C150.429 162.636 152.274 161.868 154.199 161.861C156.124 161.853 157.975 162.607 159.349 163.958L172.128 177.901L172.168 177.942L172.208 177.982C173.38 179.166 174.781 180.099 176.324 180.724C177.819 181.332 179.418 181.643 181.032 181.64C182.646 181.644 184.245 181.333 185.74 180.724C187.285 180.098 188.687 179.165 189.863 177.982C191.04 176.801 191.97 175.397 192.6 173.853C193.186 172.466 193.479 170.973 193.461 169.468C193.401 167.797 188.181 167.467 188.181 169.42Z" fill="black"/>
</g>
<defs>
<clipPath id="clip0_806_328">
<rect width="147.99" height="110.586" fill="white" transform="translate(48 71)"/>
</clipPath>
</defs>
</svg>
